<?xml version="1.0" encoding="iso-8859-1"?>
<!-- Generator: Adobe Illustrator 21.1.0, SVG Export Plug-In . SVG Version: 6.00 Build 0)  -->
<svg version="1.1" id="Layer_1" xmlns="http://www.w3.org/2000/svg" xmlns:xlink="http://www.w3.org/1999/xlink" x="0px" y="0px"
	 viewBox="0 0 100 100" style="enable-background:new 0 0 100 100;" xml:space="preserve">
<g>
	<path d="M83.347,16.154H16.653c-0.829,0-1.5,0.671-1.5,1.5v28.225c0,0.829,0.671,1.5,1.5,1.5h5.143v34.967
		c0,0.828,0.671,1.5,1.5,1.5h54.046c0.828,0,1.5-0.672,1.5-1.5V47.379h4.505c0.828,0,1.5-0.671,1.5-1.5V17.654
		C84.847,16.825,84.175,16.154,83.347,16.154z M75.842,80.846H24.796V47.379h16.112c0.501,0,0.97-0.25,1.248-0.668l8.163-12.241
		l8.163,12.241c0.278,0.417,0.747,0.668,1.248,0.668h16.111V80.846z M81.847,44.379H60.533l-8.966-13.445
		c-0.557-0.835-1.94-0.834-2.496,0l-8.966,13.445H18.153V19.154h63.694V44.379z"/>
	<path d="M57.235,52.381H43.403c-0.829,0-1.5,0.672-1.5,1.5v20.754c0,0.828,0.671,1.5,1.5,1.5h13.833c0.828,0,1.5-0.672,1.5-1.5
		V53.881C58.735,53.053,58.063,52.381,57.235,52.381z M55.735,73.135H44.903V55.381h10.833V73.135z"/>
</g>
</svg>
