<?xml version="1.0" encoding="iso-8859-1"?>
<!-- Generator: Adobe Illustrator 21.0.2, SVG Export Plug-In . SVG Version: 6.00 Build 0)  -->
<svg version="1.1" id="Layer_1" xmlns="http://www.w3.org/2000/svg" xmlns:xlink="http://www.w3.org/1999/xlink" x="0px" y="0px"
	 viewBox="0 0 100.75 100.75" style="enable-background:new 0 0 100.75 100.75;" xml:space="preserve">
<circle cx="28.804" cy="17.282" r="2.831"/>
<path d="M95.044,52.218L76.345,8.902c-0.237-0.549-0.778-0.905-1.377-0.905h-0.001c-0.6,0-1.141,0.357-1.377,0.908l-18.588,43.27
	c-0.199,0.463-0.152,0.996,0.125,1.417s0.747,0.675,1.251,0.676l16.229,0.021c0.037,0.003,0.074,0.004,0.111,0.004l0.669,0.001
	v11.804l-3.693-0.005c0,0-0.001,0-0.002,0c-0.828,0-1.499,0.67-1.5,1.498L68.16,91.393c-0.001,0.828,0.669,1.5,1.498,1.502
	l10.622,0.018c0.001,0,0.002,0,0.003,0c0.397,0,0.778-0.158,1.06-0.438c0.281-0.281,0.44-0.663,0.44-1.061l0.024-23.806
	c0.001-0.828-0.67-1.5-1.498-1.501l-3.921-0.005V54.297l17.278,0.017c0.001,0,0.001,0,0.002,0c0.505,0,0.976-0.254,1.253-0.675
	C95.197,53.215,95.244,52.682,95.044,52.218z M78.783,89.909l-7.622-0.013l0.028-20.803l7.614,0.01L78.783,89.909z M76.386,51.295
	V34.269c0-0.829-0.672-1.5-1.5-1.5s-1.5,0.671-1.5,1.5v17.023H72.95c-0.036-0.002-0.073-0.004-0.11-0.004L58.655,51.27L74.97,13.29
	l16.414,38.021L76.386,51.295z"/>
<path d="M51.272,44.898H40.466c-2.992,0-5.425-2.433-5.425-5.424c0-2.319,1.203-7.1,2.366-11.724
	c0.937-3.722,1.821-7.238,2.149-9.695c0.344-2.545-0.454-5.078-2.248-7.129c-2.1-2.402-5.278-3.836-8.502-3.836
	c-3.23,0-6.413,1.436-8.512,3.841c-1.791,2.051-2.586,4.583-2.239,7.125c0.336,2.492,1.272,6.054,2.264,9.825
	c1.203,4.574,2.446,9.303,2.446,11.594c0,2.991-2.434,5.424-5.425,5.424h-11c-0.829,0-1.5,0.671-1.5,1.5v12.955
	c-0.001,0.025-0.007,0.048-0.007,0.073S4.839,59.475,4.84,59.5v31.658c0,0.829,0.671,1.5,1.5,1.5h44.931c0.829,0,1.5-0.671,1.5-1.5
	V46.4C52.772,45.569,52.101,44.898,51.272,44.898z M17.341,47.898c4.646,0,8.425-3.779,8.425-8.424
	c0-2.678-1.236-7.379-2.545-12.356c-0.925-3.518-1.881-7.155-2.193-9.466c-0.229-1.673,0.313-3.359,1.526-4.749
	c1.515-1.735,3.911-2.813,6.252-2.813c2.336,0,4.729,1.077,6.244,2.811c1.215,1.39,1.76,3.078,1.533,4.755
	c-0.306,2.291-1.21,5.886-2.085,9.363c-1.264,5.022-2.457,9.765-2.457,12.456c0,4.645,3.78,8.424,8.425,8.424h9.306v10.028H7.841
	V47.899h9.5V47.898z M7.841,89.656v-28.73h41.931v28.73H7.841z"/>
</svg>
