<svg id="Слой_1" data-name="Слой 1" xmlns="http://www.w3.org/2000/svg" viewBox="0 0 101 101"><title>log_Монтажная область 19</title><path d="M69.35,36H59V5.5A1.5,1.5,0,0,0,57.5,4h-14A1.5,1.5,0,0,0,42,5.5V36H31.65A4.66,4.66,0,0,0,27,40.66V85.34A4.66,4.66,0,0,0,31.65,90H35v5.5a1.5,1.5,0,0,0,3,0V90H63v5.5a1.5,1.5,0,0,0,3,0V90h3.35A4.66,4.66,0,0,0,74,85.34V40.66A4.66,4.66,0,0,0,69.35,36ZM45,7H56V36H45ZM71,85.34A1.66,1.66,0,0,1,69.35,87H31.65A1.66,1.66,0,0,1,30,85.34V40.66A1.66,1.66,0,0,1,31.65,39H69.35A1.66,1.66,0,0,1,71,40.66Z"/><path d="M64.5,59h-28A1.5,1.5,0,0,0,35,60.5v20A1.5,1.5,0,0,0,36.5,82h28A1.5,1.5,0,0,0,66,80.5v-20A1.5,1.5,0,0,0,64.5,59ZM63,79H38V62H63Z"/></svg>